<svg xmlns="http://www.w3.org/2000/svg" viewBox="0 0 250 250"><g transform="matrix(5,0,0,5,0,0)"><defs><style>.b,.c{stroke:#45413c;stroke-linecap:round;stroke-linejoin:round;stroke-width:1.25px}.b{fill:#525252}.c{fill:#ffffff}.h{fill:#45413c}</style></defs><path d="m32.778 44.85-3.5-2.348a1.24 1.24 0 0 0-1.53.174l-3.1 3.315a1.188 1.188 0 0 0 1.616 1.735c.08-.065-.017.035 1.306-1.379l.057 1.139A1.188 1.188 0 1 0 30 47.37l-.077-1.57 1.53 1.028a1.189 1.189 0 0 0 1.325-1.974zm-12.411 1.498-.678-4.156a1.235 1.235 0 0 0-1.173-1h-4.541a1.189 1.189 0 0 0 0 2.377h1.738l-.792.82a1.188 1.188 0 1 0 1.708 1.652l1.1-1.132.3 1.818a1.189 1.189 0 1 0 2.346-.383z" style="stroke:#45413c;stroke-linecap:round;stroke-linejoin:round;stroke-width:1.25px;fill:#ffc44d"></path><path class="b" d="M41.819 30.864a16.142 16.142 0 0 0-2.563-2.139 17.128 17.128 0 0 1-3.332-4.225l-1.257 2.078c-2.493-2.637-6.439-3.788-10.076-3.788C18.036 22.787 11.9 26.5 13.2 35.979c.636 4.633 5.313 8.483 11.868 8.483s11-3.9 11.868-8.483c.087-.458.133-.891.177-1.323.505.113 3.7.631 4.926-.725a2.462 2.462 0 0 0-.22-3.067z"></path><path class="b" d="M14.541 33.715a7.262 7.262 0 0 1-5.208.664c-1.184-.3-2.312-1.1-1.618-2.638.574-1.268 1.966-1.9 3.091-2.724a8.838 8.838 0 0 0 2.454-2.735l1.615-2.407z"></path><path class="c" d="M22.682 24.935a22.914 22.914 0 0 0-5.6-.017c-2.882 2.02-4.637 5.567-3.882 11.062.637 4.631 5.314 8.482 11.869 8.482a13.7 13.7 0 0 0 6.718-1.652 12.9 12.9 0 0 0 1.47-6.01 11.7 11.7 0 0 0-10.575-11.865z"></path><path d="M27.636 6.065a2.205 2.205 0 0 0 .27-2.293 1.365 1.365 0 0 0-1.027-.81 2.273 2.273 0 0 0-1.129.163c-.461.172-.854.379-1.644 1.461a5.755 5.755 0 0 0-2.762-2.954 1.867 1.867 0 0 0-2.577.752 2.367 2.367 0 0 0 .577 2.22 4.993 4.993 0 0 0 1.341 1.214C13.555 6.655 7.592 11.06 9.046 20.7c.8 5.278 6.651 9.665 14.855 9.665s13.773-4.443 14.855-9.665c1.844-8.922-4.302-13.359-11.12-14.635z" style="fill:#525252"></path><path d="M11.394 10.269C14.3 8.717 18.149 8.325 22.37 8.325c8.817 0 15.988 5.523 16.366 12.445.006-.025.015-.049.02-.075 1.847-8.917-4.3-13.354-11.12-14.63a2.205 2.205 0 0 0 .27-2.293 1.365 1.365 0 0 0-1.027-.81 2.273 2.273 0 0 0-1.129.163c-.461.172-.854.379-1.644 1.461a5.755 5.755 0 0 0-2.762-2.954 1.867 1.867 0 0 0-2.577.752 2.367 2.367 0 0 0 .577 2.22 4.993 4.993 0 0 0 1.341 1.214 14.044 14.044 0 0 0-9.291 4.451z" style="fill:#656769"></path><path d="M27.636 6.065a2.205 2.205 0 0 0 .27-2.293 1.365 1.365 0 0 0-1.027-.81 2.273 2.273 0 0 0-1.129.163c-.461.172-.854.379-1.644 1.461a5.755 5.755 0 0 0-2.762-2.954 1.867 1.867 0 0 0-2.577.752 2.367 2.367 0 0 0 .577 2.22 4.993 4.993 0 0 0 1.341 1.214C13.555 6.655 7.592 11.06 9.046 20.7c.8 5.278 6.651 9.665 14.855 9.665s13.773-4.443 14.855-9.665c1.844-8.922-4.302-13.359-11.12-14.635z" style="fill:none;stroke:#45413c;stroke-linecap:round;stroke-linejoin:round;stroke-width:1.25px"></path><path class="c" d="M28.07 14.167c-5.343-.28-5.35 5.244-6 9.388a1.692 1.692 0 0 1-1.68 1.415h0a1.693 1.693 0 0 1-1.69-1.49c-.491-4.342-.192-9.481-5.736-9.767a3.791 3.791 0 0 0-.995.082 4.144 4.144 0 0 0-3.133 4.053 17.988 17.988 0 0 0 .21 2.852c.8 5.278 6.651 9.665 14.855 9.665a18.873 18.873 0 0 0 7.642-1.52 9.113 9.113 0 0 0 2.557-6.6c0-4.461-2.706-7.904-6.03-8.078z"></path><ellipse cx="20.357" cy="24.746" rx="2.688" ry="1.706" style="fill:#fff48c;stroke:#45413c;stroke-linecap:round;stroke-linejoin:round;stroke-width:1.25px"></ellipse><circle class="h" cx="16.08" cy="22.39" r=".985"></circle><circle class="h" cx="24.985" cy="22.755" r=".985"></circle></g></svg>