<svg xmlns="http://www.w3.org/2000/svg" viewBox="0 0 538.58 104.06"><defs><style>.a{fill:#2a9db2;}.b{fill:#fff;}.c{fill:#808184;}</style></defs><title>TrafficJunky_</title><rect class="a" width="104.06" height="104.06"/><path class="b" d="M75.55,42.24a14,14,0,0,1-6.45-1.6V70.78a14.83,14.83,0,0,1-1.92,7.28,13.77,13.77,0,0,1-5.45,5.45,14.58,14.58,0,0,1-14.68,0A13.39,13.39,0,0,1,44,81.2l-9.1,9.11a27.32,27.32,0,0,0,5.74,4.28,27.89,27.89,0,0,0,27.58,0A25.65,25.65,0,0,0,78.43,84.36a28,28,0,0,0,3.63-13.72v-30A13.89,13.89,0,0,1,75.55,42.24Z"/><path class="b" d="M53.54,61.52a10.73,10.73,0,0,1-10.59,0,10,10,0,0,1-4-4,11,11,0,0,1-1.46-5.43V35h26a13.83,13.83,0,0,1-1.63-6.44,13.69,13.69,0,0,1,1.68-6.51H37.47V5.83h-13V22.08H19.46V35h5.06V52.22a24.2,24.2,0,0,0,3.19,12,21.73,21.73,0,0,0,8.86,8.76,23.82,23.82,0,0,0,23.35,0A22.66,22.66,0,0,0,66,68.09l-9.3-9.3A10.06,10.06,0,0,1,53.54,61.52Z"/><path class="b" d="M80,20.65A8.31,8.31,0,0,1,83.39,24a9.3,9.3,0,0,1,1.22,4.58,9.18,9.18,0,0,1-1.2,4.5,8.37,8.37,0,0,1-3.36,3.36,9.2,9.2,0,0,1-9.06,0,8.38,8.38,0,0,1-3.36-3.36,9.23,9.23,0,0,1-1.19-4.5A9.13,9.13,0,0,1,67.69,24a8.45,8.45,0,0,1,3.41-3.36A9.07,9.07,0,0,1,80,20.65Z"/><path class="c" d="M146.19,37.41H135.27V69.19H128V37.41H117V30.93h29.22v6.48Z"/><path class="c" d="M158.53,69.19h-7.32V30.93h17.38a14.42,14.42,0,0,1,5.37,1,12,12,0,0,1,4.16,2.72,12.42,12.42,0,0,1,2.7,4.18,14.21,14.21,0,0,1,1,5.3,13.27,13.27,0,0,1-2.17,7.58,12.12,12.12,0,0,1-5.79,4.65q4.82,6.38,9.53,12.86h-8.73q-2.3-3-4.48-6T165.77,57h-7.24V69.19Zm0-18.66h10.06a6,6,0,0,0,2.06-.39,5.34,5.34,0,0,0,1.9-1.2,6.55,6.55,0,0,0,1.38-2,6.75,6.75,0,0,0,.55-2.82,11.39,11.39,0,0,0-.21-2,6.58,6.58,0,0,0-.83-2.19,5.41,5.41,0,0,0-1.77-1.78,5.66,5.66,0,0,0-3.07-.73H158.53V50.53Z"/><path class="c" d="M184.4,69.19L203.94,31h0.73l19.55,38.2h-7.95l-3-6h-18l-2.93,6H184.4ZM198.82,56.8h10.92l-5.44-11.55Z"/><path class="c" d="M236,37.41v9.46h18.45v6.74H236V69.19h-7.32V30.93h28.12v6.48H236Z"/><path class="c" d="M270.11,37.41v9.46h18.45v6.74H270.11V69.19h-7.32V30.93h28.12v6.48h-20.8Z"/><path class="c" d="M305.23,69.19h-7.32V31h7.32v38.2Z"/><path class="c" d="M349.65,59.78a18.57,18.57,0,0,1-3.08,4.16,20.46,20.46,0,0,1-4.05,3.19,19.77,19.77,0,0,1-10.17,2.8,19.06,19.06,0,0,1-7.68-1.57,20.06,20.06,0,0,1-10.56-10.56,19.6,19.6,0,0,1,0-15.37,20.06,20.06,0,0,1,10.56-10.56,19.06,19.06,0,0,1,7.68-1.57,19.79,19.79,0,0,1,10.17,2.8,20.47,20.47,0,0,1,4.05,3.19,19.12,19.12,0,0,1,3.08,4.1l-6.85,2.77a14.59,14.59,0,0,0-2-2.35,14.17,14.17,0,0,0-2.48-1.93,12.68,12.68,0,0,0-2.87-1.31,10.53,10.53,0,0,0-3.14-.47,11.33,11.33,0,0,0-4.89,1.07A13,13,0,0,0,323.52,41a13.67,13.67,0,0,0-2.66,4.15,12.82,12.82,0,0,0,0,9.9,13.75,13.75,0,0,0,2.66,4.13,12.93,12.93,0,0,0,3.95,2.85,11.31,11.31,0,0,0,4.89,1.07,10.53,10.53,0,0,0,3.14-.47,12.68,12.68,0,0,0,2.87-1.31,13.51,13.51,0,0,0,2.48-2,15.53,15.53,0,0,0,2-2.38Z"/><path class="c" d="M378.92,31V55a17.6,17.6,0,0,1-1,6.11A13.61,13.61,0,0,1,375,65.82a12.71,12.71,0,0,1-4.47,3,15.18,15.18,0,0,1-5.8,1.07A14.09,14.09,0,0,1,357,67.83a13.08,13.08,0,0,1-4.94-5.8l6.64-3a8.58,8.58,0,0,0,.84,1.49,6.48,6.48,0,0,0,3,2.35,6,6,0,0,0,2.27.39,5.93,5.93,0,0,0,5.64-3.08,8.36,8.36,0,0,0,1-2.72A15.44,15.44,0,0,0,371.6,55V31h7.32Z"/><path class="c" d="M403.54,69.87a18.89,18.89,0,0,1-6.74-1.15,14.82,14.82,0,0,1-5.17-3.24,14.31,14.31,0,0,1-3.32-5.07,17.93,17.93,0,0,1-1.18-6.64V31h7.32V53.73a10.57,10.57,0,0,0,.94,4.75,8.66,8.66,0,0,0,2.33,3,8,8,0,0,0,3,1.51,9.91,9.91,0,0,0,5.7,0,8,8,0,0,0,3-1.51,8.66,8.66,0,0,0,2.33-3,10.57,10.57,0,0,0,.94-4.75V31h7.32V53.77a18.31,18.31,0,0,1-1.15,6.64,14,14,0,0,1-3.29,5.07,14.82,14.82,0,0,1-5.17,3.24A19,19,0,0,1,403.54,69.87Z"/><path class="c" d="M460.76,69.19L435.62,46.45V69.19h-7.32V31h0.78l25.14,23.1V31h7.32v38.2h-0.78Z"/><path class="c" d="M493.27,69.19l-16-17.4v17.4h-7.32V30.93h7.32V50.37L492.43,31h9L485.69,50.74l17.25,18.45h-9.67Z"/><path class="c" d="M538.58,31q-1.47,2.4-3.37,5.49l-3.89,6.3-3.92,6.32q-1.93,3.11-3.4,5.62V69.19h-7.32V54.71q-3.4-6-7.21-11.86T502.21,31h8.52q2.35,3.92,4.81,8.1t4.81,8.1q1.15-1.83,2.4-3.92t2.51-4.21l2.48-4.18L530.06,31h8.52Z"/></svg>